<svg width="48" height="48" viewBox="0 0 48 48" fill="none" xmlns="http://www.w3.org/2000/svg">
<path d="M16 44C17.1046 44 18 43.1046 18 42C18 40.8954 17.1046 40 16 40C14.8954 40 14 40.8954 14 42C14 43.1046 14.8954 44 16 44Z" stroke="#006CB6" stroke-width="4" stroke-linecap="round" stroke-linejoin="round"/>
<path d="M38 44C39.1046 44 40 43.1046 40 42C40 40.8954 39.1046 40 38 40C36.8954 40 36 40.8954 36 42C36 43.1046 36.8954 44 38 44Z" stroke="#006CB6" stroke-width="4" stroke-linecap="round" stroke-linejoin="round"/>
<path d="M4.09998 4.1001H8.09998L13.42 28.9401C13.6151 29.8498 14.1213 30.6631 14.8514 31.2398C15.5815 31.8166 16.4898 32.1208 17.42 32.1001H36.98C37.8903 32.0986 38.7729 31.7867 39.482 31.2158C40.1911 30.6449 40.6843 29.8492 40.88 28.9601L42.53 21.5301M10.24 14.1001H27.21" stroke="#006CB6" stroke-width="4" stroke-linecap="round" stroke-linejoin="round"/>
<path d="M39.5 4C42.5376 4 45 6.46243 45 9.5C45 12.5376 42.5376 15 39.5 15C36.4624 15 34 12.5376 34 9.5C34 6.46243 36.4624 4 39.5 4Z" stroke="#006CB6" stroke-width="4"/>
</svg>
