<svg width="48" height="48" viewBox="0 0 48 48" fill="none" xmlns="http://www.w3.org/2000/svg">
<path d="M44 16V10C44 7.79086 42.2091 6 40 6H8C5.79086 6 4 7.79086 4 10V30C4 32.2091 5.79086 34 8 34H16" stroke="#006CB6" stroke-width="4" stroke-linecap="round" stroke-linejoin="round"/>
<path d="M4 16H44" stroke="#006CB6" stroke-width="4" stroke-linecap="round" stroke-linejoin="round"/>
<path d="M34 28V32.4L37.2 34.4" stroke="#006CB6" stroke-width="4" stroke-linecap="round" stroke-linejoin="round"/>
<path d="M34 42C39.5228 42 44 37.5228 44 32C44 26.4772 39.5228 22 34 22C28.4772 22 24 26.4772 24 32C24 37.5228 28.4772 42 34 42Z" stroke="#006CB6" stroke-width="4" stroke-linecap="round" stroke-linejoin="round"/>
</svg>
