<svg width="48" height="48" viewBox="0 0 48 48" fill="none" xmlns="http://www.w3.org/2000/svg">
<path d="M16.5998 20C16.342 20.014 16.0853 19.9565 15.8581 19.8338C15.631 19.7111 15.4422 19.528 15.3126 19.3046C15.183 19.0813 15.1177 18.8265 15.1239 18.5683C15.1302 18.3102 15.2076 18.0588 15.3478 17.842L22.7998 5.99998C22.9169 5.78912 23.0865 5.61208 23.2922 5.48604C23.4978 5.35999 23.7325 5.28922 23.9736 5.28056C24.2146 5.27191 24.4538 5.32568 24.6679 5.43666C24.8821 5.54763 25.0639 5.71205 25.1958 5.91398L32.5998 17.8C32.7458 18.0096 32.8316 18.2551 32.848 18.5099C32.8645 18.7648 32.8109 19.0193 32.693 19.2459C32.5752 19.4725 32.3976 19.6625 32.1796 19.7954C31.9615 19.9283 31.7112 19.9991 31.4558 20H16.5998Z" stroke="#006CB6" stroke-width="4" stroke-linecap="round" stroke-linejoin="round"/>
<path d="M18 28H8C6.89543 28 6 28.8954 6 30V40C6 41.1046 6.89543 42 8 42H18C19.1046 42 20 41.1046 20 40V30C20 28.8954 19.1046 28 18 28Z" stroke="#006CB6" stroke-width="4" stroke-linecap="round" stroke-linejoin="round"/>
<path d="M35 42C38.866 42 42 38.866 42 35C42 31.134 38.866 28 35 28C31.134 28 28 31.134 28 35C28 38.866 31.134 42 35 42Z" stroke="#006CB6" stroke-width="4" stroke-linecap="round" stroke-linejoin="round"/>
</svg>
