<svg width="48" height="48" viewBox="0 0 48 48" fill="none" xmlns="http://www.w3.org/2000/svg">
<path d="M32 42V38C32 35.8783 31.1571 33.8434 29.6569 32.3431C28.1566 30.8429 26.1217 30 24 30H12C9.87827 30 7.84344 30.8429 6.34315 32.3431C4.84285 33.8434 4 35.8783 4 38V42" stroke="#006CB6" stroke-width="4" stroke-linecap="round" stroke-linejoin="round"/>
<path d="M18 22C22.4183 22 26 18.4183 26 14C26 9.58172 22.4183 6 18 6C13.5817 6 10 9.58172 10 14C10 18.4183 13.5817 22 18 22Z" stroke="#006CB6" stroke-width="4" stroke-linecap="round" stroke-linejoin="round"/>
<path d="M38 30.26C39.7163 30.7031 41.2368 31.7037 42.3227 33.1046C43.4087 34.5056 43.9987 36.2275 44 38V42H36" stroke="#006CB6" stroke-width="4" stroke-linecap="round" stroke-linejoin="round"/>
<path d="M32 8C33.4303 8.36954 34.698 9.20892 35.6033 10.3858C36.5086 11.5627 37 13.0102 37 14.5C37 15.9898 36.5086 17.4373 35.6033 18.6142C34.698 19.7911 33.4303 20.6305 32 21" stroke="#006CB6" stroke-width="4" stroke-linecap="round" stroke-linejoin="round"/>
</svg>
