<svg width="48" height="48" viewBox="0 0 48 48" fill="none" xmlns="http://www.w3.org/2000/svg">
<path d="M24.0884 6V7.56521" stroke="#006CB6" stroke-width="4" stroke-linecap="round"/>
<path d="M10 22.4349C10 14.6549 16.3069 8.3479 24.087 8.3479V8.3479C31.867 8.3479 38.1739 14.6548 38.1739 22.4349V34.9565C38.1739 35.821 37.4732 36.5217 36.6087 36.5217H11.5652C10.7008 36.5217 10 35.821 10 34.9565V22.4349Z" stroke="#006CB6" stroke-width="4"/>
<path d="M17.8271 38.8696C17.8271 38.8696 19.3924 42.0001 24.088 42.0001C28.7837 42.0001 30.3489 38.8696 30.3489 38.8696" stroke="#006CB6" stroke-width="4" stroke-linecap="round"/>
<path d="M37.5 7C40.5376 7 43 9.46243 43 12.5C43 15.5376 40.5376 18 37.5 18C34.4624 18 32 15.5376 32 12.5C32 9.46243 34.4624 7 37.5 7Z" fill="#F6F6F6" stroke="#006CB6" stroke-width="4"/>
</svg>
