<svg width="48" height="48" viewBox="0 0 48 48" fill="none" xmlns="http://www.w3.org/2000/svg">
<path d="M36.4919 18.1124L22.7921 5.90873C21.6309 4.69709 19.8575 4.69709 18.6963 5.90873L4.99651 18.1124C4.36184 18.7746 4 19.7135 4 20.698V36.6237C4 38.5536 5.36302 40.118 7.0444 40.118" stroke="#006CB6" stroke-width="4" stroke-linecap="round"/>
<path d="M14.2324 30.9035H43.9999M16.3587 42.0663H41.8736C43.0479 42.0663 43.9999 41.2333 43.9999 40.2058V25.3221C43.9999 24.2946 43.0479 23.4616 41.8736 23.4616H16.3587C15.1844 23.4616 14.2324 24.2946 14.2324 25.3221V40.2058C14.2324 41.2333 15.1844 42.0663 16.3587 42.0663Z" stroke="#006CB6" stroke-width="4"/>
</svg>
