<svg width="48" height="48" viewBox="0 0 48 48" fill="none" xmlns="http://www.w3.org/2000/svg">
<path d="M20 22C24.4183 22 28 18.4183 28 14C28 9.58172 24.4183 6 20 6C15.5817 6 12 9.58172 12 14C12 18.4183 15.5817 22 20 22Z" stroke="#006CB6" stroke-width="4" stroke-linecap="round" stroke-linejoin="round"/>
<path d="M20.6 30H14C11.8783 30 9.84344 30.8429 8.34315 32.3431C6.84285 33.8434 6 35.8783 6 38V42H17" stroke="#006CB6" stroke-width="4" stroke-linecap="round" stroke-linejoin="round"/>
<path d="M44 35C44 39.998 40.5 42.498 36.34 43.948C36.1222 44.0218 35.8855 44.0183 35.67 43.938C31.5 42.498 28 39.998 28 34.998V28C28.0005 27.7351 28.1061 27.4813 28.2936 27.2942C28.4811 27.1071 28.7351 27.002 29 27.002C31 27.002 33.5 25.802 35.24 24.282C35.4542 24.1062 35.7226 24.01 35.9996 24.0096C36.2767 24.0093 36.5454 24.1048 36.76 24.28C38.51 25.81 41 27 43 27C43.2652 27 43.5196 27.1053 43.7071 27.2929C43.8946 27.4804 44 27.7348 44 28V35Z" stroke="#006CB6" stroke-width="4" stroke-linecap="round" stroke-linejoin="round"/>
</svg>
