<svg width="48" height="48" viewBox="0 0 48 48" fill="none" xmlns="http://www.w3.org/2000/svg">
<path d="M24.4752 4H23.5952C22.5343 4 21.5169 4.42143 20.7667 5.17157C20.0166 5.92172 19.5952 6.93913 19.5952 8V8.36C19.5944 9.06145 19.4093 9.75038 19.0582 10.3577C18.7072 10.965 18.2026 11.4693 17.5952 11.82L16.7352 12.32C16.1271 12.6711 15.4373 12.8559 14.7352 12.8559C14.033 12.8559 13.3432 12.6711 12.7352 12.32L12.4352 12.16C11.5173 11.6305 10.4268 11.4869 9.40316 11.7606C8.37949 12.0343 7.50626 12.7031 6.97516 13.62L6.53516 14.38C6.00569 15.2979 5.86205 16.3883 6.13578 17.412C6.4095 18.4357 7.07823 19.3089 7.99516 19.84L8.29516 20.04C8.89971 20.389 9.4024 20.8902 9.75326 21.4937C10.1041 22.0971 10.2909 22.7819 10.2952 23.48V24.5C10.298 25.2048 10.1145 25.8979 9.76325 26.509C9.41203 27.1201 8.90558 27.6276 8.29516 27.98L7.99516 28.16C7.07823 28.6911 6.4095 29.5643 6.13578 30.588C5.86205 31.6117 6.00569 32.7021 6.53516 33.62L6.97516 34.38C7.50626 35.2969 8.37949 35.9657 9.40316 36.2394C10.4268 36.5131 11.5173 36.3695 12.4352 35.84L12.7352 35.68C13.3432 35.3289 14.033 35.1441 14.7352 35.1441C15.4373 35.1441 16.1271 35.3289 16.7352 35.68L17.5952 36.18C18.2026 36.5307 18.7072 37.035 19.0582 37.6423C19.4093 38.2496 19.5944 38.9385 19.5952 39.64V40C19.5952 41.0609 20.0166 42.0783 20.7667 42.8284C21.5169 43.5786 22.5343 44 23.5952 44H24.4752C25.536 44 26.5534 43.5786 27.3036 42.8284C28.0537 42.0783 28.4752 41.0609 28.4752 40V39.64C28.4759 38.9385 28.661 38.2496 29.0121 37.6423C29.3631 37.035 29.8677 36.5307 30.4752 36.18L31.3352 35.68C31.9432 35.3289 32.633 35.1441 33.3352 35.1441C34.0373 35.1441 34.7271 35.3289 35.3352 35.68L35.6352 35.84C36.553 36.3695 37.6435 36.5131 38.6672 36.2394C39.6908 35.9657 40.5641 35.2969 41.0952 34.38L41.5352 33.6C42.0646 32.6821 42.2083 31.5917 41.9345 30.568C41.6608 29.5443 40.9921 28.6711 40.0752 28.14L39.7752 27.98C39.1647 27.6276 38.6583 27.1201 38.3071 26.509C37.9559 25.8979 37.7724 25.2048 37.7752 24.5V23.5C37.7724 22.7952 37.9559 22.1021 38.3071 21.491C38.6583 20.8799 39.1647 20.3724 39.7752 20.02L40.0752 19.84C40.9921 19.3089 41.6608 18.4357 41.9345 17.412C42.2083 16.3883 42.0646 15.2979 41.5352 14.38L41.0952 13.62C40.5641 12.7031 39.6908 12.0343 38.6672 11.7606C37.6435 11.4869 36.553 11.6305 35.6352 12.16L35.3352 12.32C34.7271 12.6711 34.0373 12.8559 33.3352 12.8559C32.633 12.8559 31.9432 12.6711 31.3352 12.32L30.4752 11.82C29.8677 11.4693 29.3631 10.965 29.0121 10.3577C28.661 9.75038 28.4759 9.06145 28.4752 8.36V8C28.4752 6.93913 28.0537 5.92172 27.3036 5.17157C26.5534 4.42143 25.536 4 24.4752 4Z" stroke="#006CB6" stroke-width="4" stroke-linecap="round" stroke-linejoin="round"/>
<path d="M24.0352 30C27.3489 30 30.0352 27.3137 30.0352 24C30.0352 20.6863 27.3489 18 24.0352 18C20.7215 18 18.0352 20.6863 18.0352 24C18.0352 27.3137 20.7215 30 24.0352 30Z" stroke="#006CB6" stroke-width="4" stroke-linecap="round" stroke-linejoin="round"/>
</svg>
