<svg width="48" height="48" viewBox="0 0 48 48" fill="none" xmlns="http://www.w3.org/2000/svg">
<path d="M31.8125 8.6875H34.9375C36.6634 8.6875 38.0625 10.0866 38.0625 11.8125V39.3125C38.0625 41.0384 36.6634 42.4375 34.9375 42.4375H13.0625C11.3366 42.4375 9.9375 41.0384 9.9375 39.3125V11.8125C9.9375 10.0866 11.3366 8.6875 13.0625 8.6875H16.1875" stroke="#006CB6" stroke-width="4" stroke-miterlimit="10" stroke-linecap="round" stroke-linejoin="round"/>
<path d="M28.6875 11.8125H19.3125C17.5866 11.8125 16.1875 10.4134 16.1875 8.6875C16.1875 6.96164 17.5866 5.5625 19.3125 5.5625H28.6875C30.4134 5.5625 31.8125 6.96164 31.8125 8.6875C31.8125 10.4134 30.4134 11.8125 28.6875 11.8125Z" stroke="#006CB6" stroke-width="4" stroke-miterlimit="10" stroke-linecap="round" stroke-linejoin="round"/>
<path d="M16.1875 20.875L19.3125 24" stroke="#006CB6" stroke-width="4" stroke-miterlimit="10" stroke-linecap="round" stroke-linejoin="round"/>
<path d="M24 19.3125L19.3125 24" stroke="#006CB6" stroke-width="4" stroke-miterlimit="10" stroke-linecap="round" stroke-linejoin="round"/>
<path d="M16.1875 33.375L19.3125 36.5" stroke="#006CB6" stroke-width="4" stroke-miterlimit="10" stroke-linecap="round" stroke-linejoin="round"/>
<path d="M24 31.8125L19.3125 36.5" stroke="#006CB6" stroke-width="4" stroke-miterlimit="10" stroke-linecap="round" stroke-linejoin="round"/>
<path d="M28.6875 24H31.8125" stroke="#006CB6" stroke-width="4" stroke-miterlimit="10" stroke-linecap="round" stroke-linejoin="round"/>
<path d="M28.6875 17.75H31.8125" stroke="#006CB6" stroke-width="4" stroke-miterlimit="10" stroke-linecap="round" stroke-linejoin="round"/>
<path d="M28.6875 30.25H31.8125" stroke="#006CB6" stroke-width="4" stroke-miterlimit="10" stroke-linecap="round" stroke-linejoin="round"/>
<path d="M28.6875 36.5H31.8125" stroke="#006CB6" stroke-width="4" stroke-miterlimit="10" stroke-linecap="round" stroke-linejoin="round"/>
</svg>
