<svg width="48" height="48" viewBox="0 0 48 48" fill="none" xmlns="http://www.w3.org/2000/svg">
<path d="M19.9999 20V20.4C21.3116 20.9044 22.4046 21.8532 23.0883 23.081C23.772 24.3087 24.0031 25.7375 23.7413 27.1182C23.4794 28.4989 22.7412 29.7438 21.6555 30.636C20.5697 31.5281 19.2052 32.0109 17.7999 32H9.99995C8.61148 31.9655 7.27801 31.4503 6.22696 30.5424C5.17591 29.6344 4.4724 28.39 4.23642 27.0213C4.00044 25.6526 4.2466 24.2444 4.93292 23.037C5.61925 21.8295 6.70322 20.8975 7.99995 20.4V20C7.99995 18.4087 8.63209 16.8826 9.75731 15.7574C10.8825 14.6321 12.4086 14 13.9999 14C15.5912 14 17.1174 14.6321 18.2426 15.7574C19.3678 16.8826 19.9999 18.4087 19.9999 20Z" stroke="#006CB6" stroke-width="4" stroke-linecap="round" stroke-linejoin="round"/>
<path d="M14 32V44" stroke="#006CB6" stroke-width="4" stroke-linecap="round" stroke-linejoin="round"/>
<path d="M26 38V44" stroke="#006CB6" stroke-width="4" stroke-linecap="round" stroke-linejoin="round"/>
<path d="M24 38H40.5999C40.9914 37.9945 41.3726 37.8742 41.6964 37.6541C42.0201 37.434 42.2722 37.1237 42.4212 36.7617C42.5703 36.3997 42.6098 36.0019 42.5349 35.6176C42.46 35.2334 42.274 34.8795 42 34.6L36 28H36.5999C36.9914 27.9945 37.3726 27.8742 37.6964 27.6541C38.0201 27.434 38.2722 27.1237 38.4212 26.7617C38.5703 26.3997 38.6098 26.0019 38.5349 25.6176C38.46 25.2334 38.274 24.8795 38 24.6L32 18H32.4C32.8085 18.0369 33.2184 17.9472 33.5743 17.7432C33.9301 17.5393 34.2146 17.2308 34.3893 16.8597C34.5639 16.4886 34.6202 16.0727 34.5506 15.6685C34.481 15.2643 34.2887 14.8913 34 14.6L26 6L23.2 9" stroke="#006CB6" stroke-width="4" stroke-linecap="round" stroke-linejoin="round"/>
</svg>
