<svg width="48" height="48" viewBox="0 0 48 48" fill="none" xmlns="http://www.w3.org/2000/svg">
<path d="M24 34C25.1046 34 26 33.1046 26 32C26 30.8954 25.1046 30 24 30C22.8954 30 22 30.8954 22 32C22 33.1046 22.8954 34 24 34Z" stroke="#006CB6" stroke-width="4" stroke-linecap="round" stroke-linejoin="round"/>
<path d="M38 20H10C7.79086 20 6 21.7909 6 24V40C6 42.2091 7.79086 44 10 44H38C40.2091 44 42 42.2091 42 40V24C42 21.7909 40.2091 20 38 20Z" stroke="#006CB6" stroke-width="4" stroke-linecap="round" stroke-linejoin="round"/>
<path d="M14 20.0001V14.0001C14.0001 11.7988 14.7265 9.65907 16.0666 7.91272C17.4067 6.16637 19.2855 4.91098 21.4118 4.34124C23.538 3.77151 25.7929 3.91926 27.8266 4.76159C29.8603 5.60392 31.5593 7.09376 32.66 9.00005" stroke="#006CB6" stroke-width="4" stroke-linecap="round" stroke-linejoin="round"/>
</svg>
