<svg width="1440" height="16" viewBox="0 0 1440 16" fill="none" xmlns="http://www.w3.org/2000/svg">
<path d="M-0.0478516 14.4708L3.55215 8.23538C5.15215 5.4641 9.15215 5.4641 10.7521 8.23538C12.3521 11.0067 16.3521 11.0067 17.9521 8.23538C19.5521 5.4641 23.5521 5.4641 25.1521 8.23538C26.7521 11.0067 30.7521 11.0067 32.3521 8.23538C33.9521 5.4641 37.9521 5.4641 39.5521 8.23538C41.1521 11.0067 45.1521 11.0067 46.7521 8.23538C48.3521 5.4641 52.3521 5.4641 53.9521 8.23538C55.5521 11.0067 59.5521 11.0067 61.1521 8.23538C62.7521 5.4641 66.7522 5.4641 68.3521 8.23538C69.9521 11.0067 73.9521 11.0067 75.5521 8.23538C77.1521 5.4641 81.1521 5.4641 82.7521 8.23538C84.3521 11.0067 88.3521 11.0067 89.9521 8.23538C91.5521 5.4641 95.5521 5.4641 97.1522 8.23538C98.7522 11.0067 102.752 11.0067 104.352 8.23538C105.952 5.4641 109.952 5.4641 111.552 8.23538C113.152 11.0067 117.152 11.0067 118.752 8.23538C120.352 5.4641 124.352 5.4641 125.952 8.23538C127.552 11.0067 131.552 11.0067 133.152 8.23538C134.752 5.4641 138.752 5.4641 140.352 8.23538C141.952 11.0067 145.952 11.0067 147.552 8.23538C149.152 5.4641 153.152 5.4641 154.752 8.23538C156.352 11.0067 160.352 11.0067 161.952 8.23538C163.552 5.4641 167.552 5.4641 169.152 8.23538C170.752 11.0067 174.752 11.0067 176.352 8.23538C177.952 5.4641 181.952 5.4641 183.552 8.23538C185.152 11.0067 189.152 11.0067 190.752 8.23538C192.352 5.4641 196.352 5.4641 197.952 8.23538C199.552 11.0067 203.552 11.0067 205.152 8.23538C206.752 5.4641 210.752 5.4641 212.352 8.23538C213.952 11.0067 217.952 11.0067 219.552 8.23538C221.152 5.4641 225.152 5.4641 226.752 8.23538C228.352 11.0067 232.352 11.0067 233.952 8.23538C235.552 5.4641 239.552 5.4641 241.152 8.23538C242.752 11.0067 246.752 11.0067 248.352 8.23538C249.952 5.4641 253.952 5.4641 255.552 8.23538C257.152 11.0067 261.152 11.0067 262.752 8.23538C264.352 5.4641 268.352 5.4641 269.952 8.23538C271.552 11.0067 275.552 11.0067 277.152 8.23538C278.752 5.4641 282.752 5.46411 284.352 8.23538C285.952 11.0067 289.952 11.0067 291.552 8.23538C293.152 5.46411 297.152 5.4641 298.752 8.23538C300.352 11.0067 304.352 11.0067 305.952 8.23538C307.552 5.4641 311.552 5.4641 313.152 8.23538C314.752 11.0067 318.752 11.0067 320.352 8.23538C321.952 5.4641 325.952 5.4641 327.552 8.23538C329.152 11.0067 333.152 11.0067 334.752 8.23538C336.352 5.4641 340.352 5.4641 341.952 8.23538C343.552 11.0067 347.552 11.0067 349.152 8.23538C350.752 5.4641 354.752 5.46411 356.352 8.23538C357.952 11.0067 361.952 11.0067 363.552 8.23538C365.152 5.46411 369.152 5.4641 370.752 8.23538C372.352 11.0067 376.352 11.0067 377.952 8.23538C379.552 5.4641 383.552 5.4641 385.152 8.23538C386.752 11.0067 390.752 11.0067 392.352 8.23538C393.952 5.4641 397.952 5.4641 399.552 8.23538C401.152 11.0067 405.152 11.0067 406.752 8.23538C408.352 5.4641 412.352 5.4641 413.952 8.23538C415.552 11.0067 419.552 11.0067 421.152 8.23538C422.752 5.4641 426.752 5.46411 428.352 8.23538C429.952 11.0067 433.952 11.0067 435.552 8.23538C437.152 5.46411 441.152 5.4641 442.752 8.23538C444.352 11.0067 448.352 11.0067 449.952 8.23538C451.552 5.4641 455.552 5.4641 457.152 8.23538C458.752 11.0067 462.752 11.0067 464.352 8.23538C465.952 5.4641 469.952 5.4641 471.552 8.23538C473.152 11.0067 477.152 11.0067 478.752 8.23538C480.352 5.4641 484.352 5.4641 485.952 8.23538C487.552 11.0067 491.552 11.0067 493.152 8.23538C494.752 5.4641 498.752 5.46411 500.352 8.23538C501.952 11.0067 505.952 11.0067 507.552 8.23538C509.152 5.4641 513.152 5.46411 514.752 8.23538C516.352 11.0067 520.352 11.0067 521.952 8.23538C523.552 5.46411 527.552 5.46411 529.152 8.23538C530.752 11.0067 534.752 11.0067 536.352 8.23539C537.952 5.46411 541.952 5.46411 543.552 8.23539C545.152 11.0067 549.152 11.0067 550.752 8.23538C552.352 5.46411 556.352 5.46411 557.952 8.23538C559.552 11.0067 563.552 11.0067 565.152 8.23538C566.752 5.46411 570.752 5.4641 572.352 8.23538C573.952 11.0067 577.952 11.0067 579.552 8.23538C581.152 5.4641 585.152 5.46411 586.752 8.23538C588.352 11.0067 592.352 11.0067 593.952 8.23538C595.552 5.46411 599.552 5.46411 601.152 8.23538C602.752 11.0067 606.752 11.0067 608.352 8.23539C609.952 5.46411 613.952 5.46411 615.552 8.23539C617.152 11.0067 621.152 11.0067 622.752 8.23538C624.352 5.46411 628.352 5.46411 629.952 8.23538C631.552 11.0067 635.552 11.0067 637.152 8.23538C638.752 5.46411 642.752 5.4641 644.352 8.23538C645.952 11.0067 649.952 11.0067 651.552 8.23538C653.152 5.4641 657.152 5.46411 658.752 8.23538C660.352 11.0067 664.352 11.0067 665.952 8.23538C667.552 5.46411 671.552 5.46411 673.152 8.23538C674.752 11.0067 678.752 11.0067 680.352 8.23539C681.952 5.46411 685.952 5.46411 687.552 8.23539C689.152 11.0067 693.152 11.0067 694.752 8.23538C696.352 5.46411 700.352 5.46411 701.952 8.23538C703.552 11.0067 707.552 11.0067 709.152 8.23538C710.752 5.46411 714.752 5.4641 716.352 8.23538C717.952 11.0067 721.952 11.0067 723.552 8.23538C725.152 5.4641 729.152 5.46411 730.752 8.23538C732.352 11.0067 736.352 11.0067 737.952 8.23538C739.552 5.46411 743.552 5.46411 745.152 8.23538C746.752 11.0067 750.752 11.0067 752.352 8.23539C753.952 5.46411 757.952 5.46411 759.552 8.23539C761.152 11.0067 765.152 11.0067 766.752 8.23538C768.352 5.46411 772.352 5.46411 773.952 8.23538C775.552 11.0067 779.552 11.0067 781.152 8.23538C782.752 5.46411 786.752 5.4641 788.352 8.23538C789.952 11.0067 793.952 11.0067 795.552 8.23538C797.152 5.4641 801.152 5.46411 802.752 8.23538C804.352 11.0067 808.352 11.0067 809.952 8.23538C811.552 5.46411 815.552 5.46411 817.152 8.23538C818.752 11.0067 822.752 11.0067 824.352 8.23539C825.952 5.46411 829.952 5.46411 831.552 8.23539C833.152 11.0067 837.152 11.0067 838.752 8.23538C840.352 5.46411 844.352 5.46411 845.952 8.23538C847.552 11.0067 851.552 11.0067 853.152 8.23538C854.752 5.46411 858.752 5.4641 860.352 8.23538C861.952 11.0067 865.952 11.0067 867.552 8.23538C869.152 5.4641 873.152 5.46411 874.752 8.23538C876.352 11.0067 880.352 11.0067 881.952 8.23538C883.552 5.46411 887.552 5.46411 889.152 8.23538C890.752 11.0067 894.752 11.0067 896.352 8.23539C897.952 5.46411 901.952 5.46411 903.552 8.23539C905.152 11.0067 909.152 11.0067 910.752 8.23538C912.352 5.46411 916.352 5.46411 917.952 8.23538C919.552 11.0067 923.552 11.0067 925.152 8.23538C926.752 5.46411 930.752 5.4641 932.352 8.23538C933.952 11.0067 937.952 11.0067 939.552 8.23538C941.152 5.4641 945.152 5.46411 946.752 8.23538C948.352 11.0067 952.352 11.0067 953.952 8.23538C955.552 5.46411 959.552 5.46411 961.152 8.23538C962.752 11.0067 966.752 11.0067 968.352 8.23539C969.952 5.46411 973.952 5.46411 975.552 8.23539C977.152 11.0067 981.152 11.0067 982.752 8.23538C984.352 5.46411 988.352 5.46411 989.952 8.23538C991.552 11.0067 995.552 11.0067 997.152 8.23538C998.752 5.46411 1002.75 5.4641 1004.35 8.23538C1005.95 11.0067 1009.95 11.0067 1011.55 8.23538C1013.15 5.4641 1017.15 5.4641 1018.75 8.23538C1020.35 11.0067 1024.35 11.0067 1025.95 8.23537C1027.55 5.46409 1031.55 5.46412 1033.15 8.23539C1034.75 11.0066 1038.75 11.0067 1040.35 8.23541C1041.95 5.46413 1045.95 5.46413 1047.55 8.23541C1049.15 11.0067 1053.15 11.0067 1054.75 8.2354C1056.35 5.46413 1060.35 5.4641 1061.95 8.23538C1063.55 11.0067 1067.55 11.0066 1069.15 8.23537C1070.75 5.46411 1074.75 5.46409 1076.35 8.23536C1077.95 11.0066 1081.95 11.0066 1083.55 8.23536C1085.15 5.46409 1089.15 5.46411 1090.75 8.23537C1092.35 11.0066 1096.35 11.0067 1097.95 8.23538C1099.55 5.4641 1103.55 5.46413 1105.15 8.2354C1106.75 11.0067 1110.75 11.0067 1112.35 8.23541C1113.95 5.46413 1117.95 5.46413 1119.55 8.23541C1121.15 11.0067 1125.15 11.0067 1126.75 8.2354C1128.35 5.46413 1132.35 5.4641 1133.95 8.23538C1135.55 11.0067 1139.55 11.0066 1141.15 8.23537C1142.75 5.46411 1146.75 5.46409 1148.35 8.23536C1149.95 11.0066 1153.95 11.0066 1155.55 8.23536C1157.15 5.46409 1161.15 5.46411 1162.75 8.23537C1164.35 11.0066 1168.35 11.0067 1169.95 8.23538C1171.55 5.4641 1175.55 5.46413 1177.15 8.2354C1178.75 11.0067 1182.75 11.0067 1184.35 8.23541C1185.95 5.46413 1189.95 5.46413 1191.55 8.23541C1193.15 11.0067 1197.15 11.0067 1198.75 8.2354C1200.35 5.46413 1204.35 5.4641 1205.95 8.23538C1207.55 11.0067 1211.55 11.0066 1213.15 8.23537C1214.75 5.46411 1218.75 5.46409 1220.35 8.23536C1221.95 11.0066 1225.95 11.0066 1227.55 8.23536C1229.15 5.46409 1233.15 5.46411 1234.75 8.23537C1236.35 11.0066 1240.35 11.0067 1241.95 8.23538C1243.55 5.4641 1247.55 5.46413 1249.15 8.2354C1250.75 11.0067 1254.75 11.0067 1256.35 8.23541C1257.95 5.46413 1261.95 5.46413 1263.55 8.23541C1265.15 11.0067 1269.15 11.0067 1270.75 8.2354C1272.35 5.46413 1276.35 5.4641 1277.95 8.23538C1279.55 11.0067 1283.55 11.0066 1285.15 8.23537C1286.75 5.46411 1290.75 5.46409 1292.35 8.23536C1293.95 11.0066 1297.95 11.0066 1299.55 8.23536C1301.15 5.46409 1305.15 5.46411 1306.75 8.23537C1308.35 11.0066 1312.35 11.0067 1313.95 8.23538C1315.55 5.4641 1319.55 5.46413 1321.15 8.2354C1322.75 11.0067 1326.75 11.0067 1328.35 8.23541C1329.95 5.46413 1333.95 5.46413 1335.55 8.23541C1337.15 11.0067 1341.15 11.0067 1342.75 8.2354C1344.35 5.46413 1348.35 5.4641 1349.95 8.23538C1351.55 11.0067 1355.55 11.0066 1357.15 8.23537C1358.75 5.46411 1362.75 5.46409 1364.35 8.23536C1365.95 11.0066 1369.95 11.0066 1371.55 8.23536C1373.15 5.46409 1377.15 5.46411 1378.75 8.23537C1380.35 11.0066 1384.35 11.0067 1385.95 8.23538C1387.55 5.4641 1391.55 5.46413 1393.15 8.2354C1394.75 11.0067 1398.75 11.0067 1400.35 8.23541C1401.95 5.46413 1405.95 5.46413 1407.55 8.23541C1409.15 11.0067 1413.15 11.0067 1414.75 8.2354C1416.35 5.46413 1420.35 5.4641 1421.95 8.23538C1423.55 11.0067 1427.55 11.0067 1429.15 8.2354C1430.75 5.46411 1434.75 5.46411 1436.35 8.23541L1439.95 14.4708" stroke="#E9EAEB" stroke-width="2"/>
</svg>
